<?xml version="1.0" encoding="utf-8"?>
<!-- Generator: Adobe Illustrator 16.0.0, SVG Export Plug-In . SVG Version: 6.00 Build 0)  -->
<!DOCTYPE svg PUBLIC "-//W3C//DTD SVG 1.1//EN" "http://www.w3.org/Graphics/SVG/1.1/DTD/svg11.dtd" [
	<!ENTITY ns_extend "http://ns.adobe.com/Extensibility/1.0/">
	<!ENTITY ns_ai "http://ns.adobe.com/AdobeIllustrator/10.0/">
	<!ENTITY ns_graphs "http://ns.adobe.com/Graphs/1.0/">
	<!ENTITY ns_vars "http://ns.adobe.com/Variables/1.0/">
	<!ENTITY ns_imrep "http://ns.adobe.com/ImageReplacement/1.0/">
	<!ENTITY ns_sfw "http://ns.adobe.com/SaveForWeb/1.0/">
	<!ENTITY ns_custom "http://ns.adobe.com/GenericCustomNamespace/1.0/">
	<!ENTITY ns_adobe_xpath "http://ns.adobe.com/XPath/1.0/">
]>
<svg version="1.1" id="Layer_1" xmlns:x="&ns_extend;" xmlns:i="&ns_ai;" xmlns:graph="&ns_graphs;"
	 xmlns="http://www.w3.org/2000/svg" xmlns:xlink="http://www.w3.org/1999/xlink" x="0px" y="0px" width="343.445px"
	 height="57.979px" viewBox="0 0 343.445 57.979" enable-background="new 0 0 343.445 57.979" xml:space="preserve">
<metadata><?xpacket begin="﻿" id="W5M0MpCehiHzreSzNTczkc9d"?>
<x:xmpmeta xmlns:x="adobe:ns:meta/" x:xmptk="Adobe XMP Core 5.3-c011 66.145661, 2012/02/06-14:56:27        ">
   <rdf:RDF xmlns:rdf="http://www.w3.org/1999/02/22-rdf-syntax-ns#">
      <rdf:Description rdf:about=""
            xmlns:dc="http://purl.org/dc/elements/1.1/">
         <dc:format>image/svg+xml</dc:format>
         <dc:title>
            <rdf:Alt>
               <rdf:li xml:lang="x-default">logo</rdf:li>
            </rdf:Alt>
         </dc:title>
      </rdf:Description>
      <rdf:Description rdf:about=""
            xmlns:xmp="http://ns.adobe.com/xap/1.0/"
            xmlns:xmpGImg="http://ns.adobe.com/xap/1.0/g/img/">
         <xmp:MetadataDate>2018-05-16T20:47:30-05:00</xmp:MetadataDate>
         <xmp:ModifyDate>2018-05-16T20:47:30-05:00</xmp:ModifyDate>
         <xmp:CreateDate>2018-05-16T20:47:30-05:00</xmp:CreateDate>
         <xmp:CreatorTool>Adobe Illustrator CS6 (Windows)</xmp:CreatorTool>
         <xmp:Thumbnails>
            <rdf:Alt>
               <rdf:li rdf:parseType="Resource">
                  <xmpGImg:width>256</xmpGImg:width>
                  <xmpGImg:height>44</xmpGImg:height>
                  <xmpGImg:format>JPEG</xmpGImg:format>
                  <xmpGImg:image>/9j/4AAQSkZJRgABAgEASABIAAD/7QAsUGhvdG9zaG9wIDMuMAA4QklNA+0AAAAAABAASAAAAAEA&#xA;AQBIAAAAAQAB/+4ADkFkb2JlAGTAAAAAAf/bAIQABgQEBAUEBgUFBgkGBQYJCwgGBggLDAoKCwoK&#xA;DBAMDAwMDAwQDA4PEA8ODBMTFBQTExwbGxscHx8fHx8fHx8fHwEHBwcNDA0YEBAYGhURFRofHx8f&#xA;Hx8fHx8fHx8fHx8fHx8fHx8fHx8fHx8fHx8fHx8fHx8fHx8fHx8fHx8fHx8f/8AAEQgALAEAAwER&#xA;AAIRAQMRAf/EAaIAAAAHAQEBAQEAAAAAAAAAAAQFAwIGAQAHCAkKCwEAAgIDAQEBAQEAAAAAAAAA&#xA;AQACAwQFBgcICQoLEAACAQMDAgQCBgcDBAIGAnMBAgMRBAAFIRIxQVEGE2EicYEUMpGhBxWxQiPB&#xA;UtHhMxZi8CRygvElQzRTkqKyY3PCNUQnk6OzNhdUZHTD0uIIJoMJChgZhJRFRqS0VtNVKBry4/PE&#xA;1OT0ZXWFlaW1xdXl9WZ2hpamtsbW5vY3R1dnd4eXp7fH1+f3OEhYaHiImKi4yNjo+Ck5SVlpeYmZ&#xA;qbnJ2en5KjpKWmp6ipqqusra6voRAAICAQIDBQUEBQYECAMDbQEAAhEDBCESMUEFURNhIgZxgZEy&#xA;obHwFMHR4SNCFVJicvEzJDRDghaSUyWiY7LCB3PSNeJEgxdUkwgJChgZJjZFGidkdFU38qOzwygp&#xA;0+PzhJSktMTU5PRldYWVpbXF1eX1RlZmdoaWprbG1ub2R1dnd4eXp7fH1+f3OEhYaHiImKi4yNjo&#xA;+DlJWWl5iZmpucnZ6fkqOkpaanqKmqq6ytrq+v/aAAwDAQACEQMRAD8A9U4q7FXYq7FXYq7FXYq7&#xA;FXYq7FXYq7FXYq7FXYq7FXYq7FXYq7FXYq7FXYq7FXYq7FXYq7FXYq7FXYq7FXYq7FWP+bvPOgeV&#xA;rZZNRlLTyAmC0iAaV6d6VAC+52zM0egyag1Ebd/Rw9XrseAXI793V5ZqH/OQWuPKf0dplrDFXYXB&#xA;kmYj/YNEM6HH7O469UiT5UP1uhye0GS/TED37/qRejf85BXHrKmtaYhiJ+OazYqy+4jkLcv+DGV5&#xA;/Z0V+7lv5/rH6meH2gN+uO3l+o/rexWd3DeWcF3DUw3EaSxlgVPF1DCoPTY5zE4GMjE8w9LCYlEE&#xA;cirZFk7FXYq7FXYq7FXYq7FXYq7FXYq7FXYq7FXYq7FXYq0zKil3IVVBLMTQADqScQLUl80/mP52&#xA;vPM+vym1kf8ARVmStlEpNCE6zkDu3WvYUzu+zdDHBjF/XLn+p4ftHWyz5DX0R5freqfk553k13R3&#xA;0y/lMmqacB+8c1aWAmiuT3Kn4W+jxznu2tCMU+OI9EvsLv8AsfXHLDgkfXH7Q9DzSu5eTeWrrQrH&#xA;81bzT7BVu768ub2fUtRkWnpV5yC2gB6cD/eP3O3TOj1UMk9GJS2iBERHfy9R/QHntNLHDVmMd5Ey&#xA;JPdz2H6Sx/zb+YXmjzbrx0Pyq00dmWMcItyUkn49ZHf4SqU7VAp1zM0nZ2HTY/EzVxefTy97h6vt&#xA;DLqMnh4b4fLr5+5yfkL5unX1rm/tFmfdwzyu30tw64n2gwjYRlXw/Wo7BzHcyjfx/U1L+RvnaxjN&#xA;zYX1tJOgqEhkkikNOysVUV+ZGI7dwT2lE15gFT2HnhvEi/eQmP5cfmXrtnrqeWfNDySB5Pq8U1xX&#xA;14pq0VJGO7Kx2qd696ZT2l2Zjlj8XD79uRHk3dndpZI5PCy+7fmC9pzlnp0FrerW+kaReancbw2k&#xA;TSsvQsVGyj3Y7DLcGE5JiA5ktWfKMcDM8gHylrmt6hreq3Gp38hkubhuR8FH7KKOyqNhnoeDBHFA&#xA;QjyD5/nzyyzM5cyyjyv+UXmrX7FL9PRsrOUcoHuSwaRT0ZUVWPH3NK9swNV2xhwy4d5S8nP0vZGb&#xA;NHi2iPNu5/KTzRY+YdN027iWW1v51iF7bktGFHxPWoVlKxqWoRvTauCPbGGeKU4neI5H8d6Zdk5Y&#xA;ZIxlykeY/Hc+j440jjWOMBUQBVUdAAKAZxBNm3tAKFLsCXYq7FXYq7FXYq7FXYq7FXYq7FXYq7FX&#xA;Yq7FXYq7FXmP52+dP0bpS6BZyUvdRUm6KndLboR85Dt8q5vuw9Fxz8SX0x5e/wDY6LtvW8EPDj9U&#xA;ufu/axr8ul8l+WNNe8813KRX2tW5WC0eKWUiyeqksI1fj61O/wCyB45n9pePnnw4R6YHnYHq+Pc4&#xA;PZ3gYI8WY+qY5Ufp+Hew2w1q38recxqGhXX12wt5T6UnF4/Vt3+1GyuFNeJp06iubPJgOowcOQcM&#xA;iPkXW48wwZ+LGeKIPzD6d07ULTUbC3v7RxJbXKLJE47qwr9/jnBZccoSMZcw91jyCcRKPIvnmJ5E&#xA;/MbzU8RIlVdcaMjryEU5FPpztCAdLiv/AGv74vHAkanLX+2fdJlH/OPVral9auyAbpBBErbVWN+b&#xA;Gn+sVH3Zge0Uz6I9N/0Od7PQHrPXb9L2bOXemdirwT897eC284WV1bfBdz2qSS8ftFkkZUf50Wn0&#xA;Z2HYEjLAQeQLyXbsRHMCOZD3vOPetYT+crSD8vdR4VoXgD0/l9dOv00za9i1+Zj8fuLq+2b/AC0v&#xA;h975009bZr+2W6PG2aVBO3ghYcj27Z22QnhNc6eMxgcQvlb6/jSOONUjULGgCoq7AACgAzzUkk7v&#xA;owFDZdgS7FXYq7FXYq7FXYq7FXYq7FXYq7FXYq7FXYq7FXYq7FUDrus2Wi6Rdapetxt7VC7AdWPR&#xA;UX3ZqAZdgwSyzEI8y1Z80cUDOXIPAPKmkah+Yfnqa+1GptQ4udQIrxWMGkcC/OnEewJzsdXmjotO&#xA;Ix58h+kvIaTDLWagyly5n9T1XWfyf8q6vqU2oXkt2Z5iKhJEVFVRxVEXhsqqAAM57D2zmxxEYiND&#xA;y/a7/N2PhySMpGVnz/Yx3zR+Rmiw6HdT6G9y2pQr6kMUrq6ycd2SgVdyPs++Zul7eyHIBkrhLh6r&#xA;sOAxk474ggfyK85enJJ5XvHorlptNLdm6yxfT9sfTlvb2iseNH3S/Qf0fJq7C1lHwpfD9I/SlvlG&#xA;GKb87NThlUPFLd6mkiHoVb1QR92X6yRGgiR/Nh+ho0gB10gf50/0oNv8Q/lX5vkkSE3GmT1WMtUR&#xA;3EFagcgDxkT8D7He3912hgq6kPsP6mr95oM11cT9o/Wzy3/Pzye6AzWt9C9ByHpxstfAESb/AHDN&#xA;RL2fzjkYn5/qdvHt7CeYkPl+tTvfz+8rRxP9Tsry4nArGrrHFGT4FubsP+BOGHs/mJ9RiB8T+hjP&#xA;t/EB6RIn4MQ8qaTrv5h+dR5g1SMrplvIrzPSkXGI1jt469f8r6Sdzmz1ebHosHhw+o/PfqXXaTFk&#xA;1mfxJ/SPxQe+5xz1yW+ZdFj1vQb7SpCFF3C0aueiv1Rv9iwBy/TZziyRmOhaNThGXHKB6h8o6jp9&#xA;5p19PY3kZiurZzHLGexH8PDPRMeSM4iUdwXz/JjlCRjLmH0D+UF95xutBQa3EBp8aBdOuJai4kQd&#xA;KjugHRjuffrnGds48Ecn7s+rqOn9r2HY888sf7wenoev9jP807t3Yq7FXYq7FXYq7FXYq7FXYq7F&#xA;XYq7FXYq7FXYq7FXYqw/8xPJOqebbe2s4dSSxsoWMksRjLmSTopJDLsorQe+bPs3XQ05MjHikfN1&#xA;vaOinqAIiXDEeSO8i+TbTypoosInE9xIxkurrjxMjnYbVNAq7AV/XlOv1stRk4jsOgbdDoxp8fCN&#xA;z1LIswnNdirHl/L7ycupjVE0xEvxL9YE6NIpEvLlyAVgvX2zN/lHPwcHF6aro4f8n4OPj4fVd9UR&#xA;aeTfLNnrMmtW1gkeqStJI9yGcktLXmaFuPxcj2yE9bllDwzL0d3uZQ0eKM+MR9Xf70yvtPsb+2a2&#xA;vreO6t3+1DMiuhp7MCMox5JQNxJB8m+eOMxUhYY235V/l+zEnRoqk1NHlA+4Pmd/K2p/nn7HC/kr&#xA;T/zB9q6L8rvIEUiyLo0JZTUB2kdfpVmKn6RgPaupIrjP2JHZenBvgDJbe3t7aFILeJIYIxxjijUK&#xA;ijwCigGYMpGRsmy50YiIoCgqZFLsVYd5l/5Vp/iix/T31X9N8f3HrVpT9n1f91/6nqfRmz035rwZ&#xA;eHxeH5fo6++nW6n8r4sfErj/ABz6e62YilNunbNY7J2KuxV2KuxV2KuxV2KuxV2KuxV2KuxV2Kux&#xA;V2KuxV2KuxV2KuxV2KuxV2KuxV2KuxV2KuxV/9k=</xmpGImg:image>
               </rdf:li>
            </rdf:Alt>
         </xmp:Thumbnails>
      </rdf:Description>
      <rdf:Description rdf:about=""
            xmlns:xmpMM="http://ns.adobe.com/xap/1.0/mm/"
            xmlns:stRef="http://ns.adobe.com/xap/1.0/sType/ResourceRef#"
            xmlns:stEvt="http://ns.adobe.com/xap/1.0/sType/ResourceEvent#">
         <xmpMM:InstanceID>xmp.iid:3A94F5DF7359E8119717B64E593D3A46</xmpMM:InstanceID>
         <xmpMM:DocumentID>xmp.did:3A94F5DF7359E8119717B64E593D3A46</xmpMM:DocumentID>
         <xmpMM:OriginalDocumentID>uuid:5D20892493BFDB11914A8590D31508C8</xmpMM:OriginalDocumentID>
         <xmpMM:RenditionClass>proof:pdf</xmpMM:RenditionClass>
         <xmpMM:DerivedFrom rdf:parseType="Resource">
            <stRef:instanceID>xmp.iid:3994F5DF7359E8119717B64E593D3A46</stRef:instanceID>
            <stRef:documentID>xmp.did:3994F5DF7359E8119717B64E593D3A46</stRef:documentID>
            <stRef:originalDocumentID>uuid:5D20892493BFDB11914A8590D31508C8</stRef:originalDocumentID>
            <stRef:renditionClass>proof:pdf</stRef:renditionClass>
         </xmpMM:DerivedFrom>
         <xmpMM:History>
            <rdf:Seq>
               <rdf:li rdf:parseType="Resource">
                  <stEvt:action>saved</stEvt:action>
                  <stEvt:instanceID>xmp.iid:e73bc3f9-a033-b04c-9d77-417cc3739cf3</stEvt:instanceID>
                  <stEvt:when>2017-11-17T12:24:22+05:30</stEvt:when>
                  <stEvt:softwareAgent>Adobe Illustrator CC (Windows)</stEvt:softwareAgent>
                  <stEvt:changed>/</stEvt:changed>
               </rdf:li>
               <rdf:li rdf:parseType="Resource">
                  <stEvt:action>saved</stEvt:action>
                  <stEvt:instanceID>xmp.iid:3A94F5DF7359E8119717B64E593D3A46</stEvt:instanceID>
                  <stEvt:when>2018-05-16T20:47:30-05:00</stEvt:when>
                  <stEvt:softwareAgent>Adobe Illustrator CS6 (Windows)</stEvt:softwareAgent>
                  <stEvt:changed>/</stEvt:changed>
               </rdf:li>
            </rdf:Seq>
         </xmpMM:History>
      </rdf:Description>
      <rdf:Description rdf:about=""
            xmlns:illustrator="http://ns.adobe.com/illustrator/1.0/">
         <illustrator:StartupProfile>Print</illustrator:StartupProfile>
      </rdf:Description>
      <rdf:Description rdf:about=""
            xmlns:xmpTPg="http://ns.adobe.com/xap/1.0/t/pg/"
            xmlns:stDim="http://ns.adobe.com/xap/1.0/sType/Dimensions#"
            xmlns:xmpG="http://ns.adobe.com/xap/1.0/g/">
         <xmpTPg:HasVisibleOverprint>False</xmpTPg:HasVisibleOverprint>
         <xmpTPg:HasVisibleTransparency>False</xmpTPg:HasVisibleTransparency>
         <xmpTPg:NPages>1</xmpTPg:NPages>
         <xmpTPg:MaxPageSize rdf:parseType="Resource">
            <stDim:w>343.444824</stDim:w>
            <stDim:h>57.979492</stDim:h>
            <stDim:unit>Pixels</stDim:unit>
         </xmpTPg:MaxPageSize>
         <xmpTPg:PlateNames>
            <rdf:Seq>
               <rdf:li>Cyan</rdf:li>
               <rdf:li>Magenta</rdf:li>
            </rdf:Seq>
         </xmpTPg:PlateNames>
         <xmpTPg:SwatchGroups>
            <rdf:Seq>
               <rdf:li rdf:parseType="Resource">
                  <xmpG:groupName>Default Swatch Group</xmpG:groupName>
                  <xmpG:groupType>0</xmpG:groupType>
                  <xmpG:Colorants>
                     <rdf:Seq>
                        <rdf:li rdf:parseType="Resource">
                           <xmpG:swatchName>White</xmpG:swatchName>
                           <xmpG:mode>RGB</xmpG:mode>
                           <xmpG:type>PROCESS</xmpG:type>
                           <xmpG:red>255</xmpG:red>
                           <xmpG:green>255</xmpG:green>
                           <xmpG:blue>255</xmpG:blue>
                        </rdf:li>
                        <rdf:li rdf:parseType="Resource">
                           <xmpG:swatchName>Black</xmpG:swatchName>
                           <xmpG:mode>RGB</xmpG:mode>
                           <xmpG:type>PROCESS</xmpG:type>
                           <xmpG:red>35</xmpG:red>
                           <xmpG:green>31</xmpG:green>
                           <xmpG:blue>32</xmpG:blue>
                        </rdf:li>
                        <rdf:li rdf:parseType="Resource">
                           <xmpG:swatchName>CMYK Red</xmpG:swatchName>
                           <xmpG:mode>RGB</xmpG:mode>
                           <xmpG:type>PROCESS</xmpG:type>
                           <xmpG:red>236</xmpG:red>
                           <xmpG:green>28</xmpG:green>
                           <xmpG:blue>36</xmpG:blue>
                        </rdf:li>
                        <rdf:li rdf:parseType="Resource">
                           <xmpG:swatchName>CMYK Yellow</xmpG:swatchName>
                           <xmpG:mode>RGB</xmpG:mode>
                           <xmpG:type>PROCESS</xmpG:type>
                           <xmpG:red>255</xmpG:red>
                           <xmpG:green>241</xmpG:green>
                           <xmpG:blue>0</xmpG:blue>
                        </rdf:li>
                        <rdf:li rdf:parseType="Resource">
                           <xmpG:swatchName>CMYK Green</xmpG:swatchName>
                           <xmpG:mode>RGB</xmpG:mode>
                           <xmpG:type>PROCESS</xmpG:type>
                           <xmpG:red>0</xmpG:red>
                           <xmpG:green>165</xmpG:green>
                           <xmpG:blue>81</xmpG:blue>
                        </rdf:li>
                        <rdf:li rdf:parseType="Resource">
                           <xmpG:swatchName>CMYK Cyan</xmpG:swatchName>
                           <xmpG:mode>RGB</xmpG:mode>
                           <xmpG:type>PROCESS</xmpG:type>
                           <xmpG:red>0</xmpG:red>
                           <xmpG:green>173</xmpG:green>
                           <xmpG:blue>238</xmpG:blue>
                        </rdf:li>
                        <rdf:li rdf:parseType="Resource">
                           <xmpG:swatchName>CMYK Blue</xmpG:swatchName>
                           <xmpG:mode>RGB</xmpG:mode>
                           <xmpG:type>PROCESS</xmpG:type>
                           <xmpG:red>46</xmpG:red>
                           <xmpG:green>49</xmpG:green>
                           <xmpG:blue>145</xmpG:blue>
                        </rdf:li>
                        <rdf:li rdf:parseType="Resource">
                           <xmpG:swatchName>CMYK Magenta</xmpG:swatchName>
                           <xmpG:mode>RGB</xmpG:mode>
                           <xmpG:type>PROCESS</xmpG:type>
                           <xmpG:red>235</xmpG:red>
                           <xmpG:green>0</xmpG:green>
                           <xmpG:blue>139</xmpG:blue>
                        </rdf:li>
                        <rdf:li rdf:parseType="Resource">
                           <xmpG:swatchName>C=15 M=100 Y=90 K=10</xmpG:swatchName>
                           <xmpG:mode>RGB</xmpG:mode>
                           <xmpG:type>PROCESS</xmpG:type>
                           <xmpG:red>190</xmpG:red>
                           <xmpG:green>30</xmpG:green>
                           <xmpG:blue>45</xmpG:blue>
                        </rdf:li>
                        <rdf:li rdf:parseType="Resource">
                           <xmpG:swatchName>C=0 M=90 Y=85 K=0</xmpG:swatchName>
                           <xmpG:mode>RGB</xmpG:mode>
                           <xmpG:type>PROCESS</xmpG:type>
                           <xmpG:red>238</xmpG:red>
                           <xmpG:green>64</xmpG:green>
                           <xmpG:blue>54</xmpG:blue>
                        </rdf:li>
                        <rdf:li rdf:parseType="Resource">
                           <xmpG:swatchName>C=0 M=80 Y=95 K=0</xmpG:swatchName>
                           <xmpG:mode>RGB</xmpG:mode>
                           <xmpG:type>PROCESS</xmpG:type>
                           <xmpG:red>240</xmpG:red>
                           <xmpG:green>90</xmpG:green>
                           <xmpG:blue>40</xmpG:blue>
                        </rdf:li>
                        <rdf:li rdf:parseType="Resource">
                           <xmpG:swatchName>C=0 M=50 Y=100 K=0</xmpG:swatchName>
                           <xmpG:mode>RGB</xmpG:mode>
                           <xmpG:type>PROCESS</xmpG:type>
                           <xmpG:red>246</xmpG:red>
                           <xmpG:green>146</xmpG:green>
                           <xmpG:blue>30</xmpG:blue>
                        </rdf:li>
                        <rdf:li rdf:parseType="Resource">
                           <xmpG:swatchName>C=0 M=35 Y=85 K=0</xmpG:swatchName>
                           <xmpG:mode>RGB</xmpG:mode>
                           <xmpG:type>PROCESS</xmpG:type>
                           <xmpG:red>250</xmpG:red>
                           <xmpG:green>175</xmpG:green>
                           <xmpG:blue>64</xmpG:blue>
                        </rdf:li>
                        <rdf:li rdf:parseType="Resource">
                           <xmpG:swatchName>C=5 M=0 Y=90 K=0</xmpG:swatchName>
                           <xmpG:mode>RGB</xmpG:mode>
                           <xmpG:type>PROCESS</xmpG:type>
                           <xmpG:red>249</xmpG:red>
                           <xmpG:green>236</xmpG:green>
                           <xmpG:blue>49</xmpG:blue>
                        </rdf:li>
                        <rdf:li rdf:parseType="Resource">
                           <xmpG:swatchName>C=20 M=0 Y=100 K=0</xmpG:swatchName>
                           <xmpG:mode>RGB</xmpG:mode>
                           <xmpG:type>PROCESS</xmpG:type>
                           <xmpG:red>214</xmpG:red>
                           <xmpG:green>222</xmpG:green>
                           <xmpG:blue>35</xmpG:blue>
                        </rdf:li>
                        <rdf:li rdf:parseType="Resource">
                           <xmpG:swatchName>C=50 M=0 Y=100 K=0</xmpG:swatchName>
                           <xmpG:mode>RGB</xmpG:mode>
                           <xmpG:type>PROCESS</xmpG:type>
                           <xmpG:red>139</xmpG:red>
                           <xmpG:green>197</xmpG:green>
                           <xmpG:blue>63</xmpG:blue>
                        </rdf:li>
                        <rdf:li rdf:parseType="Resource">
                           <xmpG:swatchName>C=75 M=0 Y=100 K=0</xmpG:swatchName>
                           <xmpG:mode>RGB</xmpG:mode>
                           <xmpG:type>PROCESS</xmpG:type>
                           <xmpG:red>55</xmpG:red>
                           <xmpG:green>179</xmpG:green>
                           <xmpG:blue>74</xmpG:blue>
                        </rdf:li>
                        <rdf:li rdf:parseType="Resource">
                           <xmpG:swatchName>C=85 M=10 Y=100 K=10</xmpG:swatchName>
                           <xmpG:mode>RGB</xmpG:mode>
                           <xmpG:type>PROCESS</xmpG:type>
                           <xmpG:red>0</xmpG:red>
                           <xmpG:green>147</xmpG:green>
                           <xmpG:blue>69</xmpG:blue>
                        </rdf:li>
                        <rdf:li rdf:parseType="Resource">
                           <xmpG:swatchName>C=90 M=30 Y=95 K=30</xmpG:swatchName>
                           <xmpG:mode>RGB</xmpG:mode>
                           <xmpG:type>PROCESS</xmpG:type>
                           <xmpG:red>0</xmpG:red>
                           <xmpG:green>104</xmpG:green>
                           <xmpG:blue>56</xmpG:blue>
                        </rdf:li>
                        <rdf:li rdf:parseType="Resource">
                           <xmpG:swatchName>C=75 M=0 Y=75 K=0</xmpG:swatchName>
                           <xmpG:mode>RGB</xmpG:mode>
                           <xmpG:type>PROCESS</xmpG:type>
                           <xmpG:red>41</xmpG:red>
                           <xmpG:green>180</xmpG:green>
                           <xmpG:blue>115</xmpG:blue>
                        </rdf:li>
                        <rdf:li rdf:parseType="Resource">
                           <xmpG:swatchName>C=80 M=10 Y=45 K=0</xmpG:swatchName>
                           <xmpG:mode>RGB</xmpG:mode>
                           <xmpG:type>PROCESS</xmpG:type>
                           <xmpG:red>0</xmpG:red>
                           <xmpG:green>166</xmpG:green>
                           <xmpG:blue>156</xmpG:blue>
                        </rdf:li>
                        <rdf:li rdf:parseType="Resource">
                           <xmpG:swatchName>C=70 M=15 Y=0 K=0</xmpG:swatchName>
                           <xmpG:mode>RGB</xmpG:mode>
                           <xmpG:type>PROCESS</xmpG:type>
                           <xmpG:red>38</xmpG:red>
                           <xmpG:green>169</xmpG:green>
                           <xmpG:blue>224</xmpG:blue>
                        </rdf:li>
                        <rdf:li rdf:parseType="Resource">
                           <xmpG:swatchName>C=85 M=50 Y=0 K=0</xmpG:swatchName>
                           <xmpG:mode>RGB</xmpG:mode>
                           <xmpG:type>PROCESS</xmpG:type>
                           <xmpG:red>27</xmpG:red>
                           <xmpG:green>117</xmpG:green>
                           <xmpG:blue>187</xmpG:blue>
                        </rdf:li>
                        <rdf:li rdf:parseType="Resource">
                           <xmpG:swatchName>C=100 M=95 Y=5 K=0</xmpG:swatchName>
                           <xmpG:mode>RGB</xmpG:mode>
                           <xmpG:type>PROCESS</xmpG:type>
                           <xmpG:red>43</xmpG:red>
                           <xmpG:green>56</xmpG:green>
                           <xmpG:blue>143</xmpG:blue>
                        </rdf:li>
                        <rdf:li rdf:parseType="Resource">
                           <xmpG:swatchName>C=100 M=100 Y=25 K=25</xmpG:swatchName>
                           <xmpG:mode>RGB</xmpG:mode>
                           <xmpG:type>PROCESS</xmpG:type>
                           <xmpG:red>38</xmpG:red>
                           <xmpG:green>34</xmpG:green>
                           <xmpG:blue>97</xmpG:blue>
                        </rdf:li>
                        <rdf:li rdf:parseType="Resource">
                           <xmpG:swatchName>C=75 M=100 Y=0 K=0</xmpG:swatchName>
                           <xmpG:mode>RGB</xmpG:mode>
                           <xmpG:type>PROCESS</xmpG:type>
                           <xmpG:red>101</xmpG:red>
                           <xmpG:green>45</xmpG:green>
                           <xmpG:blue>144</xmpG:blue>
                        </rdf:li>
                        <rdf:li rdf:parseType="Resource">
                           <xmpG:swatchName>C=50 M=100 Y=0 K=0</xmpG:swatchName>
                           <xmpG:mode>RGB</xmpG:mode>
                           <xmpG:type>PROCESS</xmpG:type>
                           <xmpG:red>144</xmpG:red>
                           <xmpG:green>39</xmpG:green>
                           <xmpG:blue>142</xmpG:blue>
                        </rdf:li>
                        <rdf:li rdf:parseType="Resource">
                           <xmpG:swatchName>C=35 M=100 Y=35 K=10</xmpG:swatchName>
                           <xmpG:mode>RGB</xmpG:mode>
                           <xmpG:type>PROCESS</xmpG:type>
                           <xmpG:red>158</xmpG:red>
                           <xmpG:green>31</xmpG:green>
                           <xmpG:blue>99</xmpG:blue>
                        </rdf:li>
                        <rdf:li rdf:parseType="Resource">
                           <xmpG:swatchName>C=10 M=100 Y=50 K=0</xmpG:swatchName>
                           <xmpG:mode>RGB</xmpG:mode>
                           <xmpG:type>PROCESS</xmpG:type>
                           <xmpG:red>217</xmpG:red>
                           <xmpG:green>28</xmpG:green>
                           <xmpG:blue>92</xmpG:blue>
                        </rdf:li>
                        <rdf:li rdf:parseType="Resource">
                           <xmpG:swatchName>C=0 M=95 Y=20 K=0</xmpG:swatchName>
                           <xmpG:mode>RGB</xmpG:mode>
                           <xmpG:type>PROCESS</xmpG:type>
                           <xmpG:red>236</xmpG:red>
                           <xmpG:green>41</xmpG:green>
                           <xmpG:blue>123</xmpG:blue>
                        </rdf:li>
                        <rdf:li rdf:parseType="Resource">
                           <xmpG:swatchName>C=25 M=25 Y=40 K=0</xmpG:swatchName>
                           <xmpG:mode>RGB</xmpG:mode>
                           <xmpG:type>PROCESS</xmpG:type>
                           <xmpG:red>193</xmpG:red>
                           <xmpG:green>180</xmpG:green>
                           <xmpG:blue>154</xmpG:blue>
                        </rdf:li>
                        <rdf:li rdf:parseType="Resource">
                           <xmpG:swatchName>C=40 M=45 Y=50 K=5</xmpG:swatchName>
                           <xmpG:mode>RGB</xmpG:mode>
                           <xmpG:type>PROCESS</xmpG:type>
                           <xmpG:red>154</xmpG:red>
                           <xmpG:green>132</xmpG:green>
                           <xmpG:blue>121</xmpG:blue>
                        </rdf:li>
                        <rdf:li rdf:parseType="Resource">
                           <xmpG:swatchName>C=50 M=50 Y=60 K=25</xmpG:swatchName>
                           <xmpG:mode>RGB</xmpG:mode>
                           <xmpG:type>PROCESS</xmpG:type>
                           <xmpG:red>113</xmpG:red>
                           <xmpG:green>101</xmpG:green>
                           <xmpG:blue>88</xmpG:blue>
                        </rdf:li>
                        <rdf:li rdf:parseType="Resource">
                           <xmpG:swatchName>C=55 M=60 Y=65 K=40</xmpG:swatchName>
                           <xmpG:mode>RGB</xmpG:mode>
                           <xmpG:type>PROCESS</xmpG:type>
                           <xmpG:red>90</xmpG:red>
                           <xmpG:green>74</xmpG:green>
                           <xmpG:blue>66</xmpG:blue>
                        </rdf:li>
                        <rdf:li rdf:parseType="Resource">
                           <xmpG:swatchName>C=25 M=40 Y=65 K=0</xmpG:swatchName>
                           <xmpG:mode>RGB</xmpG:mode>
                           <xmpG:type>PROCESS</xmpG:type>
                           <xmpG:red>195</xmpG:red>
                           <xmpG:green>153</xmpG:green>
                           <xmpG:blue>107</xmpG:blue>
                        </rdf:li>
                        <rdf:li rdf:parseType="Resource">
                           <xmpG:swatchName>C=30 M=50 Y=75 K=10</xmpG:swatchName>
                           <xmpG:mode>RGB</xmpG:mode>
                           <xmpG:type>PROCESS</xmpG:type>
                           <xmpG:red>168</xmpG:red>
                           <xmpG:green>124</xmpG:green>
                           <xmpG:blue>79</xmpG:blue>
                        </rdf:li>
                        <rdf:li rdf:parseType="Resource">
                           <xmpG:swatchName>C=35 M=60 Y=80 K=25</xmpG:swatchName>
                           <xmpG:mode>RGB</xmpG:mode>
                           <xmpG:type>PROCESS</xmpG:type>
                           <xmpG:red>138</xmpG:red>
                           <xmpG:green>93</xmpG:green>
                           <xmpG:blue>59</xmpG:blue>
                        </rdf:li>
                        <rdf:li rdf:parseType="Resource">
                           <xmpG:swatchName>C=40 M=65 Y=90 K=35</xmpG:swatchName>
                           <xmpG:mode>RGB</xmpG:mode>
                           <xmpG:type>PROCESS</xmpG:type>
                           <xmpG:red>117</xmpG:red>
                           <xmpG:green>76</xmpG:green>
                           <xmpG:blue>40</xmpG:blue>
                        </rdf:li>
                        <rdf:li rdf:parseType="Resource">
                           <xmpG:swatchName>C=40 M=70 Y=100 K=50</xmpG:swatchName>
                           <xmpG:mode>RGB</xmpG:mode>
                           <xmpG:type>PROCESS</xmpG:type>
                           <xmpG:red>96</xmpG:red>
                           <xmpG:green>56</xmpG:green>
                           <xmpG:blue>19</xmpG:blue>
                        </rdf:li>
                        <rdf:li rdf:parseType="Resource">
                           <xmpG:swatchName>C=50 M=70 Y=80 K=70</xmpG:swatchName>
                           <xmpG:mode>RGB</xmpG:mode>
                           <xmpG:type>PROCESS</xmpG:type>
                           <xmpG:red>59</xmpG:red>
                           <xmpG:green>35</xmpG:green>
                           <xmpG:blue>20</xmpG:blue>
                        </rdf:li>
                     </rdf:Seq>
                  </xmpG:Colorants>
               </rdf:li>
               <rdf:li rdf:parseType="Resource">
                  <xmpG:groupName>Grays</xmpG:groupName>
                  <xmpG:groupType>1</xmpG:groupType>
                  <xmpG:Colorants>
                     <rdf:Seq>
                        <rdf:li rdf:parseType="Resource">
                           <xmpG:swatchName>C=0 M=0 Y=0 K=100</xmpG:swatchName>
                           <xmpG:mode>RGB</xmpG:mode>
                           <xmpG:type>PROCESS</xmpG:type>
                           <xmpG:red>35</xmpG:red>
                           <xmpG:green>31</xmpG:green>
                           <xmpG:blue>32</xmpG:blue>
                        </rdf:li>
                        <rdf:li rdf:parseType="Resource">
                           <xmpG:swatchName>C=0 M=0 Y=0 K=90</xmpG:swatchName>
                           <xmpG:mode>RGB</xmpG:mode>
                           <xmpG:type>PROCESS</xmpG:type>
                           <xmpG:red>64</xmpG:red>
                           <xmpG:green>64</xmpG:green>
                           <xmpG:blue>65</xmpG:blue>
                        </rdf:li>
                        <rdf:li rdf:parseType="Resource">
                           <xmpG:swatchName>C=0 M=0 Y=0 K=80</xmpG:swatchName>
                           <xmpG:mode>RGB</xmpG:mode>
                           <xmpG:type>PROCESS</xmpG:type>
                           <xmpG:red>88</xmpG:red>
                           <xmpG:green>89</xmpG:green>
                           <xmpG:blue>91</xmpG:blue>
                        </rdf:li>
                        <rdf:li rdf:parseType="Resource">
                           <xmpG:swatchName>C=0 M=0 Y=0 K=70</xmpG:swatchName>
                           <xmpG:mode>RGB</xmpG:mode>
                           <xmpG:type>PROCESS</xmpG:type>
                           <xmpG:red>109</xmpG:red>
                           <xmpG:green>110</xmpG:green>
                           <xmpG:blue>112</xmpG:blue>
                        </rdf:li>
                        <rdf:li rdf:parseType="Resource">
                           <xmpG:swatchName>C=0 M=0 Y=0 K=60</xmpG:swatchName>
                           <xmpG:mode>RGB</xmpG:mode>
                           <xmpG:type>PROCESS</xmpG:type>
                           <xmpG:red>128</xmpG:red>
                           <xmpG:green>129</xmpG:green>
                           <xmpG:blue>132</xmpG:blue>
                        </rdf:li>
                        <rdf:li rdf:parseType="Resource">
                           <xmpG:swatchName>C=0 M=0 Y=0 K=50</xmpG:swatchName>
                           <xmpG:mode>RGB</xmpG:mode>
                           <xmpG:type>PROCESS</xmpG:type>
                           <xmpG:red>146</xmpG:red>
                           <xmpG:green>148</xmpG:green>
                           <xmpG:blue>151</xmpG:blue>
                        </rdf:li>
                        <rdf:li rdf:parseType="Resource">
                           <xmpG:swatchName>C=0 M=0 Y=0 K=40</xmpG:swatchName>
                           <xmpG:mode>RGB</xmpG:mode>
                           <xmpG:type>PROCESS</xmpG:type>
                           <xmpG:red>166</xmpG:red>
                           <xmpG:green>168</xmpG:green>
                           <xmpG:blue>171</xmpG:blue>
                        </rdf:li>
                        <rdf:li rdf:parseType="Resource">
                           <xmpG:swatchName>C=0 M=0 Y=0 K=30</xmpG:swatchName>
                           <xmpG:mode>RGB</xmpG:mode>
                           <xmpG:type>PROCESS</xmpG:type>
                           <xmpG:red>187</xmpG:red>
                           <xmpG:green>189</xmpG:green>
                           <xmpG:blue>191</xmpG:blue>
                        </rdf:li>
                        <rdf:li rdf:parseType="Resource">
                           <xmpG:swatchName>C=0 M=0 Y=0 K=20</xmpG:swatchName>
                           <xmpG:mode>RGB</xmpG:mode>
                           <xmpG:type>PROCESS</xmpG:type>
                           <xmpG:red>208</xmpG:red>
                           <xmpG:green>210</xmpG:green>
                           <xmpG:blue>211</xmpG:blue>
                        </rdf:li>
                        <rdf:li rdf:parseType="Resource">
                           <xmpG:swatchName>C=0 M=0 Y=0 K=10</xmpG:swatchName>
                           <xmpG:mode>RGB</xmpG:mode>
                           <xmpG:type>PROCESS</xmpG:type>
                           <xmpG:red>230</xmpG:red>
                           <xmpG:green>231</xmpG:green>
                           <xmpG:blue>232</xmpG:blue>
                        </rdf:li>
                        <rdf:li rdf:parseType="Resource">
                           <xmpG:swatchName>C=0 M=0 Y=0 K=5</xmpG:swatchName>
                           <xmpG:mode>RGB</xmpG:mode>
                           <xmpG:type>PROCESS</xmpG:type>
                           <xmpG:red>241</xmpG:red>
                           <xmpG:green>241</xmpG:green>
                           <xmpG:blue>242</xmpG:blue>
                        </rdf:li>
                     </rdf:Seq>
                  </xmpG:Colorants>
               </rdf:li>
               <rdf:li rdf:parseType="Resource">
                  <xmpG:groupName>Brights</xmpG:groupName>
                  <xmpG:groupType>1</xmpG:groupType>
                  <xmpG:Colorants>
                     <rdf:Seq>
                        <rdf:li rdf:parseType="Resource">
                           <xmpG:swatchName>C=0 M=100 Y=100 K=0</xmpG:swatchName>
                           <xmpG:mode>RGB</xmpG:mode>
                           <xmpG:type>PROCESS</xmpG:type>
                           <xmpG:red>236</xmpG:red>
                           <xmpG:green>28</xmpG:green>
                           <xmpG:blue>36</xmpG:blue>
                        </rdf:li>
                        <rdf:li rdf:parseType="Resource">
                           <xmpG:swatchName>C=0 M=75 Y=100 K=0</xmpG:swatchName>
                           <xmpG:mode>RGB</xmpG:mode>
                           <xmpG:type>PROCESS</xmpG:type>
                           <xmpG:red>241</xmpG:red>
                           <xmpG:green>101</xmpG:green>
                           <xmpG:blue>34</xmpG:blue>
                        </rdf:li>
                        <rdf:li rdf:parseType="Resource">
                           <xmpG:swatchName>C=0 M=10 Y=95 K=0</xmpG:swatchName>
                           <xmpG:mode>RGB</xmpG:mode>
                           <xmpG:type>PROCESS</xmpG:type>
                           <xmpG:red>255</xmpG:red>
                           <xmpG:green>221</xmpG:green>
                           <xmpG:blue>21</xmpG:blue>
                        </rdf:li>
                        <rdf:li rdf:parseType="Resource">
                           <xmpG:swatchName>C=85 M=10 Y=100 K=0</xmpG:swatchName>
                           <xmpG:mode>RGB</xmpG:mode>
                           <xmpG:type>PROCESS</xmpG:type>
                           <xmpG:red>0</xmpG:red>
                           <xmpG:green>161</xmpG:green>
                           <xmpG:blue>75</xmpG:blue>
                        </rdf:li>
                        <rdf:li rdf:parseType="Resource">
                           <xmpG:swatchName>C=100 M=90 Y=0 K=0</xmpG:swatchName>
                           <xmpG:mode>RGB</xmpG:mode>
                           <xmpG:type>PROCESS</xmpG:type>
                           <xmpG:red>34</xmpG:red>
                           <xmpG:green>64</xmpG:green>
                           <xmpG:blue>153</xmpG:blue>
                        </rdf:li>
                        <rdf:li rdf:parseType="Resource">
                           <xmpG:swatchName>C=60 M=90 Y=0 K=0</xmpG:swatchName>
                           <xmpG:mode>RGB</xmpG:mode>
                           <xmpG:type>PROCESS</xmpG:type>
                           <xmpG:red>127</xmpG:red>
                           <xmpG:green>63</xmpG:green>
                           <xmpG:blue>151</xmpG:blue>
                        </rdf:li>
                     </rdf:Seq>
                  </xmpG:Colorants>
               </rdf:li>
            </rdf:Seq>
         </xmpTPg:SwatchGroups>
      </rdf:Description>
      <rdf:Description rdf:about=""
            xmlns:pdf="http://ns.adobe.com/pdf/1.3/">
         <pdf:Producer>Adobe PDF library 10.01</pdf:Producer>
      </rdf:Description>
   </rdf:RDF>
</x:xmpmeta>
                                                                                                    
                                                                                                    
                                                                                                    
                                                                                                    
                                                                                                    
                                                                                                    
                                                                                                    
                                                                                                    
                                                                                                    
                                                                                                    
                                                                                                    
                                                                                                    
                                                                                                    
                                                                                                    
                                                                                                    
                                                                                                    
                                                                                                    
                                                                                                    
                                                                                                    
                                                                                                    
                           
<?xpacket end="w"?>
	</metadata>
<g>
	<g>
		<path fill="#0D7FE1" d="M38.852,48.779c-4.391-1.284-7.61-5.341-7.61-10.141c0-5.829,4.742-10.571,10.571-10.571
			c3.584,0,6.752,1.797,8.665,4.533c1.961-4.129,3.426-8.538,4.324-13.15c-1.242-0.844-2.569-1.572-3.966-2.165
			c-0.362-0.153-0.727-0.296-1.092-0.43c-0.01-0.003-0.02-0.006-0.029-0.01c-0.356-0.129-0.713-0.25-1.072-0.36
			c-0.088-0.027-0.178-0.05-0.266-0.076c-0.279-0.083-0.558-0.164-0.838-0.235c-0.16-0.041-0.323-0.075-0.484-0.112
			c-0.209-0.049-0.417-0.1-0.627-0.143c-0.235-0.048-0.474-0.087-0.712-0.127c-0.137-0.023-0.273-0.051-0.41-0.072
			c-0.318-0.048-0.638-0.087-0.96-0.123c-0.06-0.006-0.119-0.016-0.178-0.022c-0.771-0.078-1.552-0.118-2.343-0.119
			c-0.289,0-0.578,0.01-0.866,0.021c-0.083,0.003-0.167,0.002-0.25,0.006c-3.705,0.183-7.304,1.257-10.489,3.093
			c-0.055,0.032-0.11,0.063-0.165,0.095c-0.215,0.126-0.427,0.259-0.638,0.393c-0.136,0.086-0.272,0.171-0.406,0.26
			c-0.126,0.083-0.251,0.171-0.376,0.257c-0.212,0.147-0.424,0.295-0.631,0.449c-0.044,0.033-0.088,0.066-0.132,0.099
			c-3.233,2.441-5.81,5.708-7.412,9.484c-0.153,0.362-0.297,0.728-0.43,1.093c-0.001,0.004-0.002,0.008-0.003,0.011
			c-0.132,0.362-0.254,0.726-0.367,1.09c-0.025,0.083-0.046,0.167-0.071,0.25c-0.084,0.284-0.167,0.569-0.24,0.855
			c-0.039,0.153-0.071,0.309-0.107,0.463c-0.05,0.216-0.103,0.432-0.147,0.648c-0.046,0.228-0.084,0.458-0.123,0.688
			c-0.025,0.146-0.054,0.29-0.076,0.435c-0.047,0.309-0.084,0.619-0.119,0.931c-0.007,0.069-0.019,0.139-0.025,0.207
			c-0.078,0.77-0.118,1.55-0.119,2.339c0,0.354,0.01,0.706,0.026,1.059c0,0.019,0,0.038,0.001,0.057
			c0.183,3.709,1.258,7.313,3.098,10.5c0.029,0.051,0.057,0.102,0.086,0.151c0.129,0.22,0.265,0.437,0.402,0.652
			c0.083,0.131,0.165,0.262,0.25,0.391c0.087,0.132,0.178,0.261,0.268,0.391c0.144,0.207,0.288,0.414,0.438,0.616
			c0.037,0.049,0.075,0.098,0.111,0.146c1.046,1.385,2.248,2.643,3.572,3.761c0.362,0.221,0.723,0.442,1.09,0.654
			C31.936,54.711,35.584,51.94,38.852,48.779z"/>
		<path fill="#FFFFFF" d="M7.75,34.097h3.744c0.005-0.035,0.012-0.07,0.018-0.105c0.029-0.193,0.062-0.386,0.095-0.578
			c0.022-0.13,0.044-0.259,0.068-0.388c0.03-0.164,0.063-0.327,0.097-0.49c0.032-0.157,0.064-0.315,0.099-0.472
			c0.029-0.133,0.061-0.267,0.092-0.399c0.043-0.186,0.087-0.371,0.134-0.555c0.009-0.036,0.017-0.072,0.026-0.108l-3.448-1.46
			l3.542-8.365l3.448,1.46c0.118-0.193,0.248-0.374,0.369-0.563c0.068-0.105,0.136-0.209,0.205-0.313
			c0.301-0.456,0.612-0.902,0.934-1.338l-2.657-2.657l6.423-6.423l2.658,2.658c0.312-0.231,0.629-0.454,0.949-0.673
			c0.08-0.055,0.16-0.109,0.24-0.162c0.471-0.315,0.95-0.618,1.438-0.908l-1.411-3.483l8.419-3.411l1.406,3.472
			c0.864-0.208,1.742-0.381,2.633-0.514V4.576h9.083V8.32c0.034,0.005,0.067,0.012,0.1,0.017c0.198,0.03,0.396,0.064,0.594,0.098
			c0.125,0.021,0.249,0.042,0.373,0.065c0.167,0.032,0.335,0.065,0.503,0.1c0.153,0.031,0.307,0.063,0.459,0.096
			c0.137,0.03,0.274,0.063,0.411,0.095c0.182,0.042,0.363,0.085,0.543,0.131c0.037,0.009,0.075,0.017,0.112,0.027l1.458-3.443
			c-6.995-3.168-14.754-4.942-22.933-4.942c-10.145,0-19.648,2.725-27.841,7.462C0.131,8.27,0.116,8.512,0.116,8.757
			c0,10.273,2.784,19.892,7.635,28.152V34.097z"/>
	</g>
	<g>
		<path fill="#0D7FE1" d="M266.378,11.419c2.033,0.684,3.313,2.161,4.362,3.96c5.792,9.936,11.615,19.853,17.424,29.778
			c0.095,0.162,0.316,0.331,0.206,0.513c-0.104,0.173-0.36,0.073-0.548,0.072c-2.18-0.005-4.36-0.027-6.54-0.019
			c-0.371,0.002-0.559-0.143-0.737-0.44c-1.722-2.881-3.466-5.748-5.177-8.635c-0.234-0.396-0.486-0.521-0.933-0.519
			c-4.95,0.016-9.9,0.01-14.852,0.01c-0.215,0-0.431,0-0.642,0c-0.111-0.228,0.067-0.35,0.148-0.484
			c1.025-1.697,2.068-3.383,3.084-5.085c0.19-0.318,0.415-0.397,0.763-0.396c2.612,0.014,5.225,0.008,7.838,0.008
			c0.191,0,0.383,0,0.685,0c-1.982-3.283-3.914-6.484-5.915-9.798c-5.856,9.6-11.663,19.118-17.471,28.638
			c-0.1,0.088-0.222,0.065-0.337,0.065c-2.356,0.001-4.713,0.001-7.068,0c-0.117,0-0.237,0.019-0.343-0.056
			c1.001-1.684,1.99-3.373,3.004-5.049c5.42-8.965,10.845-17.925,16.269-26.887c0.478-0.789,0.946-1.583,1.436-2.364
			c0.976-1.558,2.294-2.702,4.047-3.314C265.514,11.419,265.946,11.419,266.378,11.419z"/>
		<path fill="#0D7FE1" d="M296.933,14.642c0,0.248,0,0.443,0,0.639c0,9.917-0.006,19.834,0.016,29.75
			c0.002,0.614-0.169,0.746-0.749,0.731c-1.57-0.041-3.142-0.024-4.713-0.007c-0.383,0.004-0.553-0.067-0.552-0.508
			c0.012-8.031,0.011-16.063,0.003-24.095c-0.001-0.323,0.104-0.568,0.317-0.788c1.833-1.886,3.666-3.772,5.5-5.657
			C296.778,14.685,296.822,14.682,296.933,14.642z"/>
		<path fill="#0D7FE1" d="M290.904,11.419c-0.002,0.569-0.007,1.139-0.007,1.708c-0.001,1.158-0.008,2.317,0.009,3.475
			c0.002,0.133-0.193,0.481,0.238,0.375c1.887-1.774,3.772-3.547,5.659-5.321c0.103-0.048,0.111-0.141,0.114-0.237
			C294.913,11.419,292.909,11.419,290.904,11.419z"/>
		<path fill="#0D7FE1" d="M343.02,26.63c-0.182-0.1-0.104-0.277-0.119-0.422c-0.204-2.027-0.645-4-1.592-5.812
			c-2.998-5.737-7.908-8.513-14.228-8.827c-3.665-0.182-7.347-0.035-11.021-0.052c-1.38-0.006-2.747,0.092-4.095,0.379
			c-5.121,1.09-9.05,3.829-11.386,8.566c-1.943,3.941-2.102,8.136-1.162,12.361c1.652,7.428,8.244,12.779,15.843,12.898
			c3.634,0.058,7.27,0.028,10.904,0.017c0.783-0.002,1.571-0.053,2.348-0.155c7.042-0.933,12.644-6.188,14.066-13.142
			c0.163-0.796,0.157-1.621,0.44-2.394c0-0.117,0-0.235,0-0.354c-0.123-0.249-0.032-0.515-0.061-0.771c0-0.435,0-0.87,0-1.305
			c0.033-0.29-0.07-0.589,0.061-0.871C343.02,26.708,343.02,26.669,343.02,26.63z M334.88,35.559
			c-2.009,2.586-4.706,3.989-7.941,4.132c-3.981,0.177-7.974,0.156-11.957,0.012c-5.119-0.187-9.301-4.085-9.946-9.172
			c-0.388-3.061,0.042-5.971,1.901-8.517c2.246-3.076,5.35-4.497,9.13-4.502c1.63-0.002,3.261,0,4.891,0c0,0.008,0,0.016,0,0.024
			c1.886,0,3.771-0.045,5.655,0.008c5.32,0.152,9.632,4.09,10.292,9.373C337.295,30.042,336.872,32.996,334.88,35.559z"/>
		<g>
			<polygon fill="#FFFFFF" points="160.435,10.95 127.185,10.95 127.185,16.95 140.81,16.95 140.81,45.574 146.81,45.574 
				146.81,16.95 160.435,16.95 			"/>
			<g>
				<path fill="#FFFFFF" d="M213.657,45.617h-15.473l-4-6.5h19.337c1.23-0.078,4.08-0.665,4.08-4.334
					c0-1.298-0.316-2.235-0.967-2.865c-1.094-1.061-3.067-1.239-3.513-1.22l-0.104,0.001h-17.834c-5.514,0-10-4.485-10-10
					s4.486-10,10-10h46.354l-4.875,6.5h-41.479c-1.93,0-3.5,1.57-3.5,3.5s1.57,3.5,3.5,3.5h17.797
					c0.741-0.004,5.07,0.042,8.176,3.049c1.344,1.301,2.944,3.664,2.944,7.534c0,7.685-6.212,10.688-10.388,10.831L213.657,45.617z"
					/>
			</g>
			<g>
				<path fill="#FFFFFF" d="M195.082,45.158c-5.809-9.926-11.633-19.842-17.424-29.778c-1.049-1.799-2.329-3.277-4.362-3.96
					c-0.433,0-0.865,0-1.297,0c-1.752,0.612-3.071,1.756-4.046,3.314c-0.489,0.781-0.958,1.576-1.436,2.365
					c-5.424,8.961-10.849,17.921-16.269,26.886c-0.351,0.579-0.692,1.164-1.039,1.746c2.596,0.002,5.192,0.003,7.789,0.007
					c5.14-8.426,10.283-16.856,15.465-25.352c2,3.314,13.279,22.018,15,24.898c0.179,0.298,0.365,0.442,0.736,0.44
					c2.181-0.009,4.36,0.014,6.541,0.019c0.187,0.001,0.443,0.101,0.548-0.072C195.398,45.489,195.176,45.32,195.082,45.158z"/>
			</g>
			<g>
				<path fill="#FFFFFF" d="M115.749,45.158c-5.81-9.926-11.633-19.842-17.424-29.778c-1.049-1.799-2.33-3.277-4.363-3.96
					c-0.432,0-0.865,0-1.297,0c-1.753,0.612-3.072,1.756-4.047,3.314c-0.489,0.781-0.958,1.576-1.436,2.365
					C81.759,26.06,76.333,35.02,70.914,43.984c-0.35,0.579-0.692,1.164-1.039,1.746c2.596,0.002,5.192,0.003,7.788,0.007
					c5.14-8.426,10.283-16.856,15.465-25.352c2.001,3.314,13.278,22.018,15,24.898c0.178,0.298,0.366,0.442,0.737,0.44
					c2.18-0.009,4.36,0.014,6.541,0.019c0.187,0.001,0.443,0.101,0.548-0.072C116.064,45.489,115.843,45.32,115.749,45.158z"/>
			</g>
			<path fill="#FFFFFF" d="M132.81,19.617v15.685l-22.665-22.8c-0.856-0.862-2.149-1.121-3.271-0.658
				c-1.123,0.463-1.856,1.559-1.856,2.773v7.076c1.998,3.419,3.998,6.837,6,10.254V21.89l22.665,22.799
				c0.574,0.578,1.344,0.885,2.128,0.885c0.385,0,0.773-0.073,1.144-0.227c1.123-0.463,1.856-1.559,1.856-2.773V19.617H132.81z"/>
			<path fill="#FFFFFF" d="M84.272,16.95c1.21-2,2.42-4,3.631-6H60.373v34.625h6V30.949h9.428c1.21-2,2.42-4,3.631-6H66.373v-8
				H84.272z"/>
			<polygon fill="#FFFFFF" points="244.939,10.7 232.076,27.775 225.818,20.2 218.037,20.2 229.184,33.695 229.184,45.949 
				235.184,45.949 235.184,33.62 252.453,10.7 			"/>
		</g>
	</g>
</g>
</svg>
